<svg width="16" height="16" viewBox="0 0 16 16" fill="none" xmlns="http://www.w3.org/2000/svg">
<path fill-rule="evenodd" clip-rule="evenodd" d="M14.6667 8.00016C14.6667 11.6821 11.6819 14.6668 8.00001 14.6668C4.31811 14.6668 1.33334 11.6821 1.33334 8.00016C1.33334 4.31826 4.31811 1.3335 8.00001 1.3335C11.6819 1.3335 14.6667 4.31826 14.6667 8.00016ZM5.97976 5.97993C6.17502 5.78467 6.49161 5.78467 6.68687 5.97993L7.99999 7.29305L9.31309 5.97994C9.50836 5.78468 9.82494 5.78468 10.0202 5.97994C10.2155 6.1752 10.2155 6.49179 10.0202 6.68705L8.7071 8.00016L10.0202 9.31325C10.2155 9.50851 10.2155 9.82509 10.0202 10.0204C9.82493 10.2156 9.50834 10.2156 9.31308 10.0204L7.99999 8.70726L6.68688 10.0204C6.49162 10.2156 6.17504 10.2156 5.97978 10.0204C5.78451 9.82511 5.78451 9.50852 5.97978 9.31326L7.29288 8.00016L5.97976 6.68704C5.7845 6.49177 5.7845 6.17519 5.97976 5.97993Z" fill="#E13C36"/>
</svg>
