<svg width="18" height="18" viewBox="0 0 18 18" fill="none" xmlns="http://www.w3.org/2000/svg">
<g clip-path="url(#clip0_20_2633)">
<path d="M17.2708 9.16765C17.2708 8.4302 17.212 7.89205 17.0848 7.33398H8.81201V10.6625H13.6679C13.5701 11.4896 13.0414 12.7354 11.8665 13.5724L11.8501 13.6839L14.4658 15.7465L14.647 15.7649C16.3113 14.2003 17.2708 11.8982 17.2708 9.16765Z" fill="#4285F4"/>
<path d="M8.81206 17.9374C11.1911 17.9374 13.1882 17.1401 14.647 15.7649L11.8666 13.5724C11.1226 14.1006 10.1239 14.4693 8.81206 14.4693C6.48199 14.4693 4.50438 12.9047 3.79941 10.7422L3.69608 10.7511L0.976243 12.8937L0.940674 12.9944C2.38962 15.9243 5.36586 17.9374 8.81206 17.9374Z" fill="#34A853"/>
<path d="M3.79955 10.7421C3.61354 10.184 3.50589 9.58606 3.50589 8.96822C3.50589 8.35032 3.61354 7.7524 3.78977 7.19433L3.78484 7.07548L1.03092 4.89844L0.940817 4.94206C0.343639 6.15789 0.000976562 7.52321 0.000976562 8.96822C0.000976562 10.4132 0.343639 11.7785 0.940817 12.9943L3.79955 10.7421Z" fill="#FBBC05"/>
<path d="M8.81217 3.46802C10.4667 3.46802 11.5828 4.19551 12.2192 4.80346L14.7059 2.33196C13.1786 0.886946 11.1912 0 8.81217 0C5.36598 0 2.38974 2.01305 0.940796 4.94292L3.78974 7.19519C4.5045 5.03265 6.48211 3.46802 8.81217 3.46802Z" fill="#EB4335"/>
</g>
<defs>
<clipPath id="clip0_20_2633">
<rect width="17.28" height="18" fill="white"/>
</clipPath>
</defs>
</svg>
