<svg width="16" height="16" viewBox="0 0 16 16" fill="none" xmlns="http://www.w3.org/2000/svg">
<g clip-path="url(#clip0_179_254)">
<path d="M10.4856 2.58939C11.4418 1.62946 12.8405 1.6093 13.6148 2.38662C14.3906 3.1654 14.3697 4.57289 13.4128 5.53348L11.797 7.15564C11.6021 7.35128 11.6027 7.66786 11.7983 7.86274C11.994 8.05763 12.3105 8.05701 12.5054 7.86137L14.1213 6.23921C15.3955 4.96007 15.5555 2.91785 14.3233 1.68088C13.0897 0.442449 11.052 0.603857 9.77712 1.88366L6.54535 5.12796C5.27115 6.4071 5.11118 8.44934 6.34336 9.68631C6.53824 9.88195 6.85482 9.88256 7.05046 9.68768C7.2461 9.4928 7.24672 9.17621 7.05183 8.98057C6.27606 8.20179 6.29696 6.79428 7.25382 5.8337L10.4856 2.58939Z" fill="white"/>
<path opacity="0.5" d="M9.65642 6.31364C9.46154 6.118 9.14496 6.11738 8.94932 6.31227C8.75368 6.50715 8.75307 6.82373 8.94795 7.01937C9.72372 7.79816 9.70283 9.20563 8.74596 10.1662L5.51421 13.4106C4.558 14.3705 3.15928 14.3906 2.38497 13.6133C1.60919 12.8345 1.63009 11.427 2.58695 10.4664L4.20285 8.84427C4.39773 8.64863 4.39712 8.33205 4.20148 8.13716C4.00584 7.94228 3.68926 7.94289 3.49437 8.13853L1.87848 9.7607C0.604279 11.0398 0.444306 13.0821 1.67649 14.3191C2.91014 15.5575 4.94784 15.3961 6.22269 14.1163L9.45444 10.872C10.7286 9.59281 10.8886 7.5506 9.65642 6.31364Z" fill="white"/>
</g>
<defs>
<clipPath id="clip0_179_254">
<rect width="16" height="16" fill="white"/>
</clipPath>
</defs>
</svg>
