<svg width="16" height="16" viewBox="0 0 16 16" fill="none" xmlns="http://www.w3.org/2000/svg">
<path opacity="0.5" d="M1.33337 10.6667C1.33337 8.78113 1.33337 7.83832 1.91916 7.25253C2.50495 6.66675 3.44776 6.66675 5.33337 6.66675H10.6667C12.5523 6.66675 13.4951 6.66675 14.0809 7.25253C14.6667 7.83832 14.6667 8.78113 14.6667 10.6667C14.6667 12.5524 14.6667 13.4952 14.0809 14.081C13.4951 14.6667 12.5523 14.6667 10.6667 14.6667H5.33337C3.44776 14.6667 2.50495 14.6667 1.91916 14.081C1.33337 13.4952 1.33337 12.5524 1.33337 10.6667Z" fill="white"/>
<path d="M4.5 5.33325C4.5 3.40026 6.067 1.83325 8 1.83325C9.933 1.83325 11.5 3.40026 11.5 5.33325V6.66897C11.8782 6.6725 12.209 6.68126 12.5 6.70299V5.33325C12.5 2.84797 10.4853 0.833252 8 0.833252C5.51472 0.833252 3.5 2.84797 3.5 5.33325V6.70299C3.79101 6.68126 4.12176 6.6725 4.5 6.66897V5.33325Z" fill="white"/>
</svg>
