<svg width="92" height="92" viewBox="0 0 92 92" fill="none" xmlns="http://www.w3.org/2000/svg">
<rect width="92" height="92" rx="46" fill="white" fill-opacity="0.06"/>
<g clip-path="url(#paint0_diamond_27_1385_clip_path)" data-figma-skip-parse="true"><g transform="matrix(-0.0333095 0.03 -0.0532943 -0.0459694 54.3095 41)"><rect x="0" y="0" width="1118.92" height="555.076" fill="url(#paint0_diamond_27_1385)" opacity="1" shape-rendering="crispEdges"/><rect x="0" y="0" width="1118.92" height="555.076" transform="scale(1 -1)" fill="url(#paint0_diamond_27_1385)" opacity="1" shape-rendering="crispEdges"/><rect x="0" y="0" width="1118.92" height="555.076" transform="scale(-1 1)" fill="url(#paint0_diamond_27_1385)" opacity="1" shape-rendering="crispEdges"/><rect x="0" y="0" width="1118.92" height="555.076" transform="scale(-1)" fill="url(#paint0_diamond_27_1385)" opacity="1" shape-rendering="crispEdges"/></g></g><path opacity="0.5" d="M21 56C21 48.9289 21 45.3934 23.1967 43.1967C25.3934 41 28.9289 41 36 41H56C63.0711 41 66.6066 41 68.8033 43.1967C71 45.3934 71 48.9289 71 56C71 63.0711 71 66.6066 68.8033 68.8033C66.6066 71 63.0711 71 56 71H36C28.9289 71 25.3934 71 23.1967 68.8033C21 66.6066 21 63.0711 21 56Z" data-figma-gradient-fill="{&#34;type&#34;:&#34;GRADIENT_DIAMOND&#34;,&#34;stops&#34;:[{&#34;color&#34;:{&#34;r&#34;:0.45257732272148132,&#34;g&#34;:0.94742268323898315,&#34;b&#34;:0.63195878267288208,&#34;a&#34;:1.0},&#34;position&#34;:0.0},{&#34;color&#34;:{&#34;r&#34;:0.066666670143604279,&#34;g&#34;:0.69411766529083252,&#34;b&#34;:0.29411765933036804,&#34;a&#34;:1.0},&#34;position&#34;:1.0}],&#34;stopsVar&#34;:[{&#34;color&#34;:{&#34;r&#34;:0.45257732272148132,&#34;g&#34;:0.94742268323898315,&#34;b&#34;:0.63195878267288208,&#34;a&#34;:1.0},&#34;position&#34;:0.0},{&#34;color&#34;:{&#34;r&#34;:0.066666670143604279,&#34;g&#34;:0.69411766529083252,&#34;b&#34;:0.29411765933036804,&#34;a&#34;:1.0},&#34;position&#34;:1.0}],&#34;transform&#34;:{&#34;m00&#34;:-66.618911743164062,&#34;m01&#34;:-106.58854675292969,&#34;m02&#34;:140.91317749023438,&#34;m10&#34;:59.999988555908203,&#34;m11&#34;:-91.938735961914062,&#34;m12&#34;:56.969379425048828},&#34;opacity&#34;:1.0,&#34;blendMode&#34;:&#34;NORMAL&#34;,&#34;visible&#34;:true}"/>
<g clip-path="url(#paint1_diamond_27_1385_clip_path)" data-figma-skip-parse="true"><g transform="matrix(-0.0166547 0.005 -0.0266471 -0.00766156 50.1547 53.5)"><rect x="0" y="0" width="1000" height="479.227" fill="url(#paint1_diamond_27_1385)" opacity="1" shape-rendering="crispEdges"/><rect x="0" y="0" width="1000" height="479.227" transform="scale(1 -1)" fill="url(#paint1_diamond_27_1385)" opacity="1" shape-rendering="crispEdges"/><rect x="0" y="0" width="1000" height="479.227" transform="scale(-1 1)" fill="url(#paint1_diamond_27_1385)" opacity="1" shape-rendering="crispEdges"/><rect x="0" y="0" width="1000" height="479.227" transform="scale(-1)" fill="url(#paint1_diamond_27_1385)" opacity="1" shape-rendering="crispEdges"/></g></g><path d="M36 58.5C37.3807 58.5 38.5 57.3807 38.5 56C38.5 54.6193 37.3807 53.5 36 53.5C34.6193 53.5 33.5 54.6193 33.5 56C33.5 57.3807 34.6193 58.5 36 58.5Z" data-figma-gradient-fill="{&#34;type&#34;:&#34;GRADIENT_DIAMOND&#34;,&#34;stops&#34;:[{&#34;color&#34;:{&#34;r&#34;:0.45257732272148132,&#34;g&#34;:0.94742268323898315,&#34;b&#34;:0.63195878267288208,&#34;a&#34;:1.0},&#34;position&#34;:0.0},{&#34;color&#34;:{&#34;r&#34;:0.066666670143604279,&#34;g&#34;:0.69411766529083252,&#34;b&#34;:0.29411765933036804,&#34;a&#34;:1.0},&#34;position&#34;:1.0}],&#34;stopsVar&#34;:[{&#34;color&#34;:{&#34;r&#34;:0.45257732272148132,&#34;g&#34;:0.94742268323898315,&#34;b&#34;:0.63195878267288208,&#34;a&#34;:1.0},&#34;position&#34;:0.0},{&#34;color&#34;:{&#34;r&#34;:0.066666670143604279,&#34;g&#34;:0.69411766529083252,&#34;b&#34;:0.29411765933036804,&#34;a&#34;:1.0},&#34;position&#34;:1.0}],&#34;transform&#34;:{&#34;m00&#34;:-33.309455871582031,&#34;m01&#34;:-53.294273376464844,&#34;m02&#34;:93.456588745117188,&#34;m10&#34;:9.9999980926513672,&#34;m11&#34;:-15.323122978210449,&#34;m12&#34;:56.161563873291016},&#34;opacity&#34;:1.0,&#34;blendMode&#34;:&#34;NORMAL&#34;,&#34;visible&#34;:true}"/>
<g clip-path="url(#paint2_diamond_27_1385_clip_path)" data-figma-skip-parse="true"><g transform="matrix(-0.0166547 0.005 -0.0266471 -0.00766156 50.1547 53.5)"><rect x="0" y="0" width="1000" height="479.227" fill="url(#paint2_diamond_27_1385)" opacity="1" shape-rendering="crispEdges"/><rect x="0" y="0" width="1000" height="479.227" transform="scale(1 -1)" fill="url(#paint2_diamond_27_1385)" opacity="1" shape-rendering="crispEdges"/><rect x="0" y="0" width="1000" height="479.227" transform="scale(-1 1)" fill="url(#paint2_diamond_27_1385)" opacity="1" shape-rendering="crispEdges"/><rect x="0" y="0" width="1000" height="479.227" transform="scale(-1)" fill="url(#paint2_diamond_27_1385)" opacity="1" shape-rendering="crispEdges"/></g></g><path d="M46 58.5C47.3807 58.5 48.5 57.3807 48.5 56C48.5 54.6193 47.3807 53.5 46 53.5C44.6193 53.5 43.5 54.6193 43.5 56C43.5 57.3807 44.6193 58.5 46 58.5Z" data-figma-gradient-fill="{&#34;type&#34;:&#34;GRADIENT_DIAMOND&#34;,&#34;stops&#34;:[{&#34;color&#34;:{&#34;r&#34;:0.45257732272148132,&#34;g&#34;:0.94742268323898315,&#34;b&#34;:0.63195878267288208,&#34;a&#34;:1.0},&#34;position&#34;:0.0},{&#34;color&#34;:{&#34;r&#34;:0.066666670143604279,&#34;g&#34;:0.69411766529083252,&#34;b&#34;:0.29411765933036804,&#34;a&#34;:1.0},&#34;position&#34;:1.0}],&#34;stopsVar&#34;:[{&#34;color&#34;:{&#34;r&#34;:0.45257732272148132,&#34;g&#34;:0.94742268323898315,&#34;b&#34;:0.63195878267288208,&#34;a&#34;:1.0},&#34;position&#34;:0.0},{&#34;color&#34;:{&#34;r&#34;:0.066666670143604279,&#34;g&#34;:0.69411766529083252,&#34;b&#34;:0.29411765933036804,&#34;a&#34;:1.0},&#34;position&#34;:1.0}],&#34;transform&#34;:{&#34;m00&#34;:-33.309455871582031,&#34;m01&#34;:-53.294273376464844,&#34;m02&#34;:93.456588745117188,&#34;m10&#34;:9.9999980926513672,&#34;m11&#34;:-15.323122978210449,&#34;m12&#34;:56.161563873291016},&#34;opacity&#34;:1.0,&#34;blendMode&#34;:&#34;NORMAL&#34;,&#34;visible&#34;:true}"/>
<g clip-path="url(#paint3_diamond_27_1385_clip_path)" data-figma-skip-parse="true"><g transform="matrix(-0.0166547 0.005 -0.0266471 -0.00766156 50.1547 53.5)"><rect x="0" y="0" width="1000" height="479.227" fill="url(#paint3_diamond_27_1385)" opacity="1" shape-rendering="crispEdges"/><rect x="0" y="0" width="1000" height="479.227" transform="scale(1 -1)" fill="url(#paint3_diamond_27_1385)" opacity="1" shape-rendering="crispEdges"/><rect x="0" y="0" width="1000" height="479.227" transform="scale(-1 1)" fill="url(#paint3_diamond_27_1385)" opacity="1" shape-rendering="crispEdges"/><rect x="0" y="0" width="1000" height="479.227" transform="scale(-1)" fill="url(#paint3_diamond_27_1385)" opacity="1" shape-rendering="crispEdges"/></g></g><path d="M58.5 56C58.5 57.3807 57.3807 58.5 56 58.5C54.6193 58.5 53.5 57.3807 53.5 56C53.5 54.6193 54.6193 53.5 56 53.5C57.3807 53.5 58.5 54.6193 58.5 56Z" data-figma-gradient-fill="{&#34;type&#34;:&#34;GRADIENT_DIAMOND&#34;,&#34;stops&#34;:[{&#34;color&#34;:{&#34;r&#34;:0.45257732272148132,&#34;g&#34;:0.94742268323898315,&#34;b&#34;:0.63195878267288208,&#34;a&#34;:1.0},&#34;position&#34;:0.0},{&#34;color&#34;:{&#34;r&#34;:0.066666670143604279,&#34;g&#34;:0.69411766529083252,&#34;b&#34;:0.29411765933036804,&#34;a&#34;:1.0},&#34;position&#34;:1.0}],&#34;stopsVar&#34;:[{&#34;color&#34;:{&#34;r&#34;:0.45257732272148132,&#34;g&#34;:0.94742268323898315,&#34;b&#34;:0.63195878267288208,&#34;a&#34;:1.0},&#34;position&#34;:0.0},{&#34;color&#34;:{&#34;r&#34;:0.066666670143604279,&#34;g&#34;:0.69411766529083252,&#34;b&#34;:0.29411765933036804,&#34;a&#34;:1.0},&#34;position&#34;:1.0}],&#34;transform&#34;:{&#34;m00&#34;:-33.309455871582031,&#34;m01&#34;:-53.294273376464844,&#34;m02&#34;:93.456588745117188,&#34;m10&#34;:9.9999980926513672,&#34;m11&#34;:-15.323122978210449,&#34;m12&#34;:56.161563873291016},&#34;opacity&#34;:1.0,&#34;blendMode&#34;:&#34;NORMAL&#34;,&#34;visible&#34;:true}"/>
<g clip-path="url(#paint4_diamond_27_1385_clip_path)" data-figma-skip-parse="true"><g transform="matrix(-0.0221694 0.0220115 -0.0354704 -0.0337285 51.2944 19.125)"><rect x="0" y="0" width="1000" height="479.227" fill="url(#paint4_diamond_27_1385)" opacity="1" shape-rendering="crispEdges"/><rect x="0" y="0" width="1000" height="479.227" transform="scale(1 -1)" fill="url(#paint4_diamond_27_1385)" opacity="1" shape-rendering="crispEdges"/><rect x="0" y="0" width="1000" height="479.227" transform="scale(-1 1)" fill="url(#paint4_diamond_27_1385)" opacity="1" shape-rendering="crispEdges"/><rect x="0" y="0" width="1000" height="479.227" transform="scale(-1)" fill="url(#paint4_diamond_27_1385)" opacity="1" shape-rendering="crispEdges"/></g></g><path d="M32.875 36C32.875 28.7513 38.7513 22.875 46 22.875C52.1132 22.875 57.2545 27.0561 58.7116 32.7174C58.9697 33.7202 59.9919 34.3239 60.9948 34.0658C61.9976 33.8077 62.6014 32.7855 62.3433 31.7826C60.4701 24.5047 53.8656 19.125 46 19.125C36.6802 19.125 29.125 26.6802 29.125 36V41.1365C30.2163 41.055 31.4566 41.0222 32.875 41.0089V36Z" data-figma-gradient-fill="{&#34;type&#34;:&#34;GRADIENT_DIAMOND&#34;,&#34;stops&#34;:[{&#34;color&#34;:{&#34;r&#34;:0.45257732272148132,&#34;g&#34;:0.94742268323898315,&#34;b&#34;:0.63195878267288208,&#34;a&#34;:1.0},&#34;position&#34;:0.0},{&#34;color&#34;:{&#34;r&#34;:0.066666670143604279,&#34;g&#34;:0.69411766529083252,&#34;b&#34;:0.29411765933036804,&#34;a&#34;:1.0},&#34;position&#34;:1.0}],&#34;stopsVar&#34;:[{&#34;color&#34;:{&#34;r&#34;:0.45257732272148132,&#34;g&#34;:0.94742268323898315,&#34;b&#34;:0.63195878267288208,&#34;a&#34;:1.0},&#34;position&#34;:0.0},{&#34;color&#34;:{&#34;r&#34;:0.066666670143604279,&#34;g&#34;:0.69411766529083252,&#34;b&#34;:0.29411765933036804,&#34;a&#34;:1.0},&#34;position&#34;:1.0}],&#34;transform&#34;:{&#34;m00&#34;:-44.338733673095703,&#34;m01&#34;:-70.940834045410156,&#34;m02&#34;:108.93415069580078,&#34;m10&#34;:44.023033142089844,&#34;m11&#34;:-67.457046508789062,&#34;m12&#34;:30.842008590698242},&#34;opacity&#34;:1.0,&#34;blendMode&#34;:&#34;NORMAL&#34;,&#34;visible&#34;:true}"/>
<defs>
<clipPath id="paint0_diamond_27_1385_clip_path"><path opacity="0.5" d="M21 56C21 48.9289 21 45.3934 23.1967 43.1967C25.3934 41 28.9289 41 36 41H56C63.0711 41 66.6066 41 68.8033 43.1967C71 45.3934 71 48.9289 71 56C71 63.0711 71 66.6066 68.8033 68.8033C66.6066 71 63.0711 71 56 71H36C28.9289 71 25.3934 71 23.1967 68.8033C21 66.6066 21 63.0711 21 56Z"/></clipPath><clipPath id="paint1_diamond_27_1385_clip_path"><path d="M36 58.5C37.3807 58.5 38.5 57.3807 38.5 56C38.5 54.6193 37.3807 53.5 36 53.5C34.6193 53.5 33.5 54.6193 33.5 56C33.5 57.3807 34.6193 58.5 36 58.5Z"/></clipPath><clipPath id="paint2_diamond_27_1385_clip_path"><path d="M46 58.5C47.3807 58.5 48.5 57.3807 48.5 56C48.5 54.6193 47.3807 53.5 46 53.5C44.6193 53.5 43.5 54.6193 43.5 56C43.5 57.3807 44.6193 58.5 46 58.5Z"/></clipPath><clipPath id="paint3_diamond_27_1385_clip_path"><path d="M58.5 56C58.5 57.3807 57.3807 58.5 56 58.5C54.6193 58.5 53.5 57.3807 53.5 56C53.5 54.6193 54.6193 53.5 56 53.5C57.3807 53.5 58.5 54.6193 58.5 56Z"/></clipPath><clipPath id="paint4_diamond_27_1385_clip_path"><path d="M32.875 36C32.875 28.7513 38.7513 22.875 46 22.875C52.1132 22.875 57.2545 27.0561 58.7116 32.7174C58.9697 33.7202 59.9919 34.3239 60.9948 34.0658C61.9976 33.8077 62.6014 32.7855 62.3433 31.7826C60.4701 24.5047 53.8656 19.125 46 19.125C36.6802 19.125 29.125 26.6802 29.125 36V41.1365C30.2163 41.055 31.4566 41.0222 32.875 41.0089V36Z"/></clipPath><linearGradient id="paint0_diamond_27_1385" x1="0" y1="0" x2="500" y2="500" gradientUnits="userSpaceOnUse">
<stop stop-color="#73F2A1"/>
<stop offset="1" stop-color="#11B14B"/>
</linearGradient>
<linearGradient id="paint1_diamond_27_1385" x1="0" y1="0" x2="500" y2="500" gradientUnits="userSpaceOnUse">
<stop stop-color="#73F2A1"/>
<stop offset="1" stop-color="#11B14B"/>
</linearGradient>
<linearGradient id="paint2_diamond_27_1385" x1="0" y1="0" x2="500" y2="500" gradientUnits="userSpaceOnUse">
<stop stop-color="#73F2A1"/>
<stop offset="1" stop-color="#11B14B"/>
</linearGradient>
<linearGradient id="paint3_diamond_27_1385" x1="0" y1="0" x2="500" y2="500" gradientUnits="userSpaceOnUse">
<stop stop-color="#73F2A1"/>
<stop offset="1" stop-color="#11B14B"/>
</linearGradient>
<linearGradient id="paint4_diamond_27_1385" x1="0" y1="0" x2="500" y2="500" gradientUnits="userSpaceOnUse">
<stop stop-color="#73F2A1"/>
<stop offset="1" stop-color="#11B14B"/>
</linearGradient>
</defs>
</svg>
