<svg width="170" height="43" viewBox="0 0 170 43" fill="none" xmlns="http://www.w3.org/2000/svg">
<path d="M2.41423 35V8.55555H9.85646L17.1853 27.9733L24.2876 8.55555H31.5787V35H26.1765V17.2822L19.3009 35H14.692L7.81646 17.2822V35H2.41423ZM45.1636 35.2267C38.9681 35.2267 34.9259 31.26 34.9259 25.2911C34.9259 19.3222 38.9681 15.3556 45.1636 15.3556C51.3592 15.3556 55.4014 19.3222 55.4014 25.2911C55.4014 31.2978 51.3592 35.2267 45.1636 35.2267ZM45.1636 30.8822C48.1481 30.8822 49.9992 28.5778 49.9992 25.2911C49.9992 22.0044 48.1481 19.7 45.1636 19.7C42.1792 19.7 40.3659 22.0044 40.3659 25.2911C40.3659 28.5778 42.1792 30.8822 45.1636 30.8822ZM72.6133 18.2644L73.0667 15.5822H77.7511V34.4333C77.7511 39.2311 74.8044 42.7822 67.3622 42.7822C61.96 42.7822 58.2578 40.3267 57.9933 35.8311H63.3578C63.8489 37.6822 65.3222 38.74 67.7778 38.74C70.7622 38.74 72.5378 37.2667 72.5378 34.2444V32.2044C71.2533 33.8289 69.3267 34.8867 66.6067 34.8867C61.3933 34.9244 57.5778 31.1089 57.5778 25.1022C57.5778 19.1711 61.3933 15.3178 66.5689 15.3178C69.3644 15.3178 71.3289 16.5644 72.6133 18.2644ZM67.7778 30.6178C70.6867 30.6178 72.5 28.3889 72.5 25.1778C72.5 21.9289 70.6867 19.6244 67.7778 19.6244C64.8689 19.6244 63.0178 21.8911 63.0178 25.14C63.0178 28.3889 64.8689 30.6178 67.7778 30.6178Z" fill="#E13C36"/>
<path d="M87.1315 35L79.7648 8.55555L85.6582 8.51778L90.5315 27.86L95.7071 8.55555H100.807L105.831 27.86L110.818 8.55555H116.56L109.194 35H102.696L98.0871 17.4333L93.6293 35H87.1315ZM135.061 30.5044H135.665V35H132.945C130.187 35 129.318 33.6778 129.356 31.8267C127.996 33.98 126.032 35.2267 123.009 35.2267C118.816 35.2267 115.794 33.2244 115.794 29.5222C115.794 25.4044 118.892 23.0622 124.709 23.0622H128.563V22.1178C128.563 20.38 127.316 19.2467 125.087 19.2467C123.009 19.2467 121.612 20.1911 121.385 21.6267H116.247C116.625 17.8489 120.101 15.3556 125.238 15.3556C130.678 15.3556 133.814 17.7733 133.814 22.42V29.2956C133.814 30.3156 134.229 30.5044 135.061 30.5044ZM128.563 26.9911V26.6133H124.672C122.443 26.6133 121.158 27.52 121.158 29.1444C121.158 30.5044 122.254 31.3733 124.029 31.3733C126.825 31.3733 128.525 29.6356 128.563 26.9911ZM148.643 15.5822H149.55V20.4178H147.435C144.261 20.4178 143.052 22.5333 143.052 25.48V35H137.726V15.5822H142.561L143.052 18.4911C144.11 16.7533 145.621 15.5822 148.643 15.5822ZM150.764 28.54H155.827C156.015 30.24 157.489 31.4111 160.095 31.4111C162.324 31.4111 163.684 30.6933 163.684 29.3333C163.684 27.7467 162.362 27.6333 159.227 27.2178C154.693 26.6889 151.18 25.6689 151.18 21.6644C151.18 17.8111 154.542 15.28 159.529 15.3178C164.742 15.3178 168.331 17.6222 168.595 21.5889H163.495C163.344 20.04 161.871 19.0956 159.718 19.0956C157.64 19.0956 156.28 19.8511 156.28 21.0978C156.28 22.5711 157.942 22.7222 160.738 23.0622C165.195 23.5156 168.898 24.5356 168.898 28.9178C168.898 32.7711 165.271 35.2267 160.058 35.2267C154.655 35.2267 150.991 32.6956 150.764 28.54Z" fill="white"/>
</svg>
