<svg width="92" height="92" viewBox="0 0 92 92" fill="none" xmlns="http://www.w3.org/2000/svg">
<rect width="92" height="92" rx="46" fill="white" fill-opacity="0.06"/>
<path fill-rule="evenodd" clip-rule="evenodd" d="M32.7993 42.4992L36.3975 45.4977C40.989 49.324 43.2848 51.2372 46.0002 51.2372C48.7156 51.2372 51.0114 49.324 55.603 45.4977L59.2011 42.4992C60.0858 41.762 60.5282 41.3934 60.7642 40.8895C61.0002 40.3855 61.0002 39.8097 61.0002 38.6581V33.5C61.0002 32.6984 61.0002 31.9514 60.9956 31.2542C60.9663 26.8265 60.7512 24.4121 59.1696 22.8306C57.3391 21 54.3928 21 48.5002 21H43.5002C37.6077 21 34.6614 21 32.8308 22.8306C31.2492 24.4121 31.0295 26.8265 31.0002 31.2542C30.9956 31.9514 31.0002 32.6984 31.0002 33.5V38.6581C31.0002 39.8097 31.0002 40.3855 31.2362 40.8895C31.4723 41.3934 31.9146 41.762 32.7993 42.4992ZM39.125 31C39.125 29.9645 39.9645 29.125 41 29.125H51C52.0355 29.125 52.875 29.9645 52.875 31C52.875 32.0355 52.0355 32.875 51 32.875H41C39.9645 32.875 39.125 32.0355 39.125 31ZM41.625 38.5C41.625 37.4645 42.4645 36.625 43.5 36.625H48.5C49.5355 36.625 50.375 37.4645 50.375 38.5C50.375 39.5355 49.5355 40.375 48.5 40.375H43.5C42.4645 40.375 41.625 39.5355 41.625 38.5Z" fill="#E13C36"/>
<path opacity="0.5" d="M36.3968 45.4976L32.7987 42.4992C31.914 41.7619 31.4717 41.3933 31.2356 40.8894C30.9996 40.3855 30.9996 39.8097 30.9996 38.6581V33.4999C30.9996 33.2266 30.9991 32.9597 30.9985 32.6989C30.9975 32.1948 30.9966 31.7136 30.9996 31.2541C27.7495 31.5739 25.5618 32.296 23.9289 33.9289C21 36.8578 21 41.5739 21 51.002C21 60.4301 21 65.1441 23.9289 68.0731C26.8579 71.002 31.5719 71.002 41 71.002H51C60.4281 71.002 65.1421 71.002 68.0711 68.0731C71 65.1441 71 60.4301 71 51.002C71 41.5739 71 36.8578 68.0711 33.9289C66.4373 32.2951 64.248 31.5726 60.995 31.2532C60.9996 31.9503 60.9996 32.6984 60.9996 33.4999V38.6581C60.9996 39.8097 60.9996 40.3855 60.7636 40.8894C60.5275 41.3933 60.0852 41.7619 59.2005 42.4992L55.6024 45.4976C51.0108 49.324 48.715 51.2371 45.9996 51.2371C43.2842 51.2371 40.9884 49.324 36.3968 45.4976Z" fill="#E13C36"/>
</svg>
