<svg width="92" height="92" viewBox="0 0 92 92" fill="none" xmlns="http://www.w3.org/2000/svg">
<rect width="92" height="92" rx="46" fill="white" fill-opacity="0.06"/>
<path opacity="0.5" d="M23.9289 63.0711C26.8579 66 31.5719 66 41 66L55.375 65.9861C61.9648 65.9171 65.6352 65.507 68.0711 63.0711C71 60.1422 71 55.4282 71 46.0001C71 36.572 71 31.8579 68.0711 28.929C65.6352 26.4932 61.9346 26.069 55.3448 26H41C31.5719 26 26.8579 26 23.9289 28.9289C21 31.8579 21 36.5719 21 46C21 55.4281 21 60.1421 23.9289 63.0711Z" fill="url(#paint0_linear_27_1558)"/>
<path d="M48.5 46C48.5 44.6193 47.3807 43.5 46 43.5C44.6193 43.5 43.5 44.6193 43.5 46C43.5 47.3807 44.6193 48.5 46 48.5C47.3807 48.5 48.5 47.3807 48.5 46Z" fill="url(#paint1_linear_27_1558)"/>
<path d="M36 48.5C37.3807 48.5 38.5 47.3807 38.5 46C38.5 44.6193 37.3807 43.5 36 43.5C34.6193 43.5 33.5 44.6193 33.5 46C33.5 47.3807 34.6193 48.5 36 48.5Z" fill="url(#paint2_linear_27_1558)"/>
<path fill-rule="evenodd" clip-rule="evenodd" d="M53.5 19.125C54.5355 19.125 55.375 19.9645 55.375 21V26.014V65.986V71C55.375 72.0355 54.5355 72.875 53.5 72.875C52.4645 72.875 51.625 72.0355 51.625 71V21C51.625 19.9645 52.4645 19.125 53.5 19.125Z" fill="white"/>
<defs>
<linearGradient id="paint0_linear_27_1558" x1="46" y1="26" x2="46" y2="66" gradientUnits="userSpaceOnUse">
<stop stop-color="#816BF4"/>
<stop offset="1" stop-color="#654BF2"/>
</linearGradient>
<linearGradient id="paint1_linear_27_1558" x1="41" y1="43.5" x2="41" y2="48.5" gradientUnits="userSpaceOnUse">
<stop stop-color="#816BF4"/>
<stop offset="1" stop-color="#654BF2"/>
</linearGradient>
<linearGradient id="paint2_linear_27_1558" x1="41" y1="43.5" x2="41" y2="48.5" gradientUnits="userSpaceOnUse">
<stop stop-color="#816BF4"/>
<stop offset="1" stop-color="#654BF2"/>
</linearGradient>
</defs>
</svg>
