<svg width="92" height="92" viewBox="0 0 92 92" fill="none" xmlns="http://www.w3.org/2000/svg">
<rect width="92" height="92" rx="46" fill="white" fill-opacity="0.06"/>
<path opacity="0.5" d="M23.5 42.0416C23.5 34.0477 23.5 30.0507 24.4438 28.706C25.3876 27.3613 29.1458 26.0749 36.6623 23.502L38.0943 23.0118C42.0125 21.6706 43.9715 21 46 21C48.0285 21 49.9875 21.6706 53.9057 23.0118L55.3377 23.502C62.8542 26.0749 66.6124 27.3613 67.5562 28.706C68.5 30.0507 68.5 34.0477 68.5 42.0416V45.9784C68.5 60.0736 57.9026 66.9137 51.2536 69.8182C49.45 70.6061 48.5481 71 46 71C43.4519 71 42.55 70.6061 40.7464 69.8182C34.0974 66.9137 23.5 60.0736 23.5 45.9784V42.0416Z" fill="#E13C36"/>
<path d="M49.75 53.5C49.75 54.8807 48.6307 56 47.25 56H44.75C43.3693 56 42.25 54.8807 42.25 53.5V49.9966C40.0082 48.6998 38.5 46.2761 38.5 43.5C38.5 39.3579 41.8579 36 46 36C50.1421 36 53.5 39.3579 53.5 43.5C53.5 46.2761 51.9918 48.6998 49.75 49.9966V53.5Z" fill="#E13C36"/>
</svg>
