<svg width="16" height="16" viewBox="0 0 16 16" fill="none" xmlns="http://www.w3.org/2000/svg">
<g clip-path="url(#paint0_diamond_179_3257_clip_path)" data-figma-skip-parse="true"><g transform="matrix(-0.00888252 0.0133333 -0.0142118 -0.0204308 10.2159 1.3335)"><rect x="0" y="0" width="1140.08" height="569.056" fill="url(#paint0_diamond_179_3257)" opacity="1" shape-rendering="crispEdges"/><rect x="0" y="0" width="1140.08" height="569.056" transform="scale(1 -1)" fill="url(#paint0_diamond_179_3257)" opacity="1" shape-rendering="crispEdges"/><rect x="0" y="0" width="1140.08" height="569.056" transform="scale(-1 1)" fill="url(#paint0_diamond_179_3257)" opacity="1" shape-rendering="crispEdges"/><rect x="0" y="0" width="1140.08" height="569.056" transform="scale(-1)" fill="url(#paint0_diamond_179_3257)" opacity="1" shape-rendering="crispEdges"/></g></g><path fill-rule="evenodd" clip-rule="evenodd" d="M14.6667 8.00016C14.6667 11.6821 11.6819 14.6668 8.00001 14.6668C4.31811 14.6668 1.33334 11.6821 1.33334 8.00016C1.33334 4.31826 4.31811 1.3335 8.00001 1.3335C11.6819 1.3335 14.6667 4.31826 14.6667 8.00016ZM10.6869 5.97994C10.8822 6.1752 10.8822 6.49179 10.6869 6.68705L7.35356 10.0204C7.1583 10.2156 6.84172 10.2156 6.64646 10.0204L5.31312 8.68705C5.11786 8.49179 5.11786 8.1752 5.31312 7.97994C5.50839 7.78468 5.82497 7.78468 6.02023 7.97994L7.00001 8.95972L8.4899 7.46983L9.97979 5.97994C10.1751 5.78468 10.4916 5.78468 10.6869 5.97994Z" data-figma-gradient-fill="{&#34;type&#34;:&#34;GRADIENT_DIAMOND&#34;,&#34;stops&#34;:[{&#34;color&#34;:{&#34;r&#34;:0.45257732272148132,&#34;g&#34;:0.94742268323898315,&#34;b&#34;:0.63195878267288208,&#34;a&#34;:1.0},&#34;position&#34;:0.0},{&#34;color&#34;:{&#34;r&#34;:0.066666670143604279,&#34;g&#34;:0.69411766529083252,&#34;b&#34;:0.29411765933036804,&#34;a&#34;:1.0},&#34;position&#34;:1.0}],&#34;stopsVar&#34;:[{&#34;color&#34;:{&#34;r&#34;:0.45257732272148132,&#34;g&#34;:0.94742268323898315,&#34;b&#34;:0.63195878267288208,&#34;a&#34;:1.0},&#34;position&#34;:0.0},{&#34;color&#34;:{&#34;r&#34;:0.066666670143604279,&#34;g&#34;:0.69411766529083252,&#34;b&#34;:0.29411765933036804,&#34;a&#34;:1.0},&#34;position&#34;:1.0}],&#34;transform&#34;:{&#34;m00&#34;:-17.765043258666992,&#34;m01&#34;:-28.423610687255859,&#34;m02&#34;:33.310192108154297,&#34;m10&#34;:26.666660308837891,&#34;m11&#34;:-40.861660003662109,&#34;m12&#34;:8.4309968948364258},&#34;opacity&#34;:1.0,&#34;blendMode&#34;:&#34;NORMAL&#34;,&#34;visible&#34;:true}"/>
<defs>
<clipPath id="paint0_diamond_179_3257_clip_path"><path fill-rule="evenodd" clip-rule="evenodd" d="M14.6667 8.00016C14.6667 11.6821 11.6819 14.6668 8.00001 14.6668C4.31811 14.6668 1.33334 11.6821 1.33334 8.00016C1.33334 4.31826 4.31811 1.3335 8.00001 1.3335C11.6819 1.3335 14.6667 4.31826 14.6667 8.00016ZM10.6869 5.97994C10.8822 6.1752 10.8822 6.49179 10.6869 6.68705L7.35356 10.0204C7.1583 10.2156 6.84172 10.2156 6.64646 10.0204L5.31312 8.68705C5.11786 8.49179 5.11786 8.1752 5.31312 7.97994C5.50839 7.78468 5.82497 7.78468 6.02023 7.97994L7.00001 8.95972L8.4899 7.46983L9.97979 5.97994C10.1751 5.78468 10.4916 5.78468 10.6869 5.97994Z"/></clipPath><linearGradient id="paint0_diamond_179_3257" x1="0" y1="0" x2="500" y2="500" gradientUnits="userSpaceOnUse">
<stop stop-color="#73F2A1"/>
<stop offset="1" stop-color="#11B14B"/>
</linearGradient>
</defs>
</svg>
