<svg width="16" height="16" viewBox="0 0 16 16" fill="none" xmlns="http://www.w3.org/2000/svg">
<path opacity="0.5" d="M1.33337 7.99992C1.33337 4.31802 4.31814 1.33325 8.00004 1.33325C11.6819 1.33325 14.6667 4.31802 14.6667 7.99992C14.6667 11.6818 11.6819 14.6666 8.00004 14.6666C4.31814 14.6666 1.33337 11.6818 1.33337 7.99992Z" fill="white"/>
<path d="M7.73758 5.11336C8.47982 4.37112 8.85094 4 9.31211 4C9.77328 4 10.1444 4.37112 10.8866 5.11336C11.6289 5.8556 12 6.22672 12 6.68789C12 7.14906 11.6289 7.52018 10.8866 8.26242L9.14093 10.0081L5.99187 6.85907L7.73758 5.11336L7.73758 5.11336Z" fill="white"/>
<path d="M5.28477 7.56617L8.43383 10.7152L8.26242 10.8866C7.52018 11.6289 7.14906 12 6.68789 12C6.22672 12 5.8556 11.6289 5.11336 10.8866C4.37112 10.1444 4 9.77328 4 9.31211C4 8.85094 4.37112 8.47982 5.11336 7.73758L5.28477 7.56617Z" fill="white"/>
</svg>
